<?xml version="1.0" standalone="no"?>
<!DOCTYPE svg PUBLIC "-//W3C//DTD SVG 20010904//EN"
 "http://www.w3.org/TR/2001/REC-SVG-20010904/DTD/svg10.dtd">
<svg version="1.0" xmlns="http://www.w3.org/2000/svg"
 width="260.000000pt" height="260.000000pt" viewBox="0 0 260.000000 260.000000"
 preserveAspectRatio="xMidYMid meet">
<metadata>
Created by potrace 1.11, written by Peter Selinger 2001-2013
</metadata>
<g transform="translate(0.000000,260.000000) scale(0.100000,-0.100000)"
fill="#000000" stroke="none">
<path d="M160 2590 c8 -5 24 -7 35 -4 l20 5 -20 -12 c-11 -7 -24 -17 -28 -23
-6 -7 -7 -5 -4 5 3 9 -1 16 -8 16 -7 0 -10 -8 -7 -19 2 -10 -1 -18 -7 -18 -7
0 -9 -4 -6 -10 3 -6 -1 -7 -9 -4 -9 3 -16 1 -16 -6 0 -6 -5 -8 -11 -4 -8 4 -2
12 15 21 22 12 28 33 10 33 -3 0 -2 -4 1 -10 5 -9 -1 -12 -21 -9 -14 2 -22
-26 -13 -44 10 -17 9 -17 -13 -6 -20 11 -21 10 -10 -3 10 -12 9 -18 -3 -28
-17 -14 -10 -34 8 -24 7 4 8 3 4 -2 -10 -11 -57 -13 -57 -2 0 4 -4 8 -8 8 -5
0 -9 -7 -9 -15 0 -8 4 -12 9 -9 4 3 8 0 8 -5 0 -6 -5 -11 -10 -11 -7 0 -9
-368 -7 -1127 2 -621 5 -1133 7 -1140 2 -7 6 -12 9 -11 3 0 16 0 29 -1 19 -1
22 -5 17 -22 -6 -18 -5 -20 14 -10 24 14 28 4 5 -13 -13 -10 -11 -12 12 -14
30 -2 47 -19 36 -37 -3 -5 1 -4 10 3 13 10 15 9 13 -11 -2 -15 2 -24 11 -24
10 0 11 4 2 14 -8 11 -7 12 6 7 9 -3 16 -10 16 -15 0 -5 469 -9 1119 -9 1017
0 1119 1 1125 16 3 9 13 14 21 11 10 -4 12 -1 8 10 -4 10 -2 14 4 10 6 -4 10
0 9 9 0 9 7 18 17 19 9 2 15 -1 11 -6 -3 -5 -10 -6 -16 -3 -7 4 -8 2 -4 -4 11
-17 19 -14 40 15 11 14 14 23 8 19 -6 -3 -13 -2 -17 4 -3 5 1 10 9 10 9 0 16
3 17 8 2 22 8 45 14 50 3 4 3 -9 0 -28 -4 -25 -3 -31 5 -20 5 8 10 25 10 38 0
12 5 22 11 22 5 0 7 -4 4 -10 -3 -5 -1 -10 4 -10 7 0 11 350 11 1121 0 1058
-1 1121 -17 1115 -10 -4 -14 -4 -10 0 4 4 3 12 -3 18 -5 7 -5 17 1 26 8 12 9
11 7 -4 -2 -10 2 -21 9 -23 6 -2 11 2 9 9 -3 24 -17 37 -31 31 -11 -4 -15 2
-15 20 0 34 -71 96 -105 92 -21 -2 -23 1 -14 16 9 18 -32 18 -1138 18 -741 1
-1143 -3 -1133 -9z m2318 -48 c2 -7 7 -10 12 -7 9 5 43 -31 46 -49 1 -7 -4
-13 -12 -13 -7 0 -13 3 -12 6 0 3 -1 9 -2 14 -1 4 -3 13 -4 20 -1 6 -7 11 -14
9 -7 -1 -15 5 -19 14 -4 11 -8 12 -13 4 -5 -8 -9 -7 -13 3 -4 10 0 14 11 13 9
-2 18 -8 20 -14z m-2435 -2359 c-7 -3 -13 -12 -13 -21 0 -15 2 -15 10 -2 8 13
10 12 10 -2 0 -24 -17 -23 -30 1 -14 26 -13 27 13 28 12 0 16 -1 10 -4z m145
-148 c-3 -3 -9 2 -12 12 -6 14 -5 15 5 6 7 -7 10 -15 7 -18z m2239 10 c0 -8
-4 -15 -9 -15 -10 0 -11 14 -1 23 9 10 10 9 10 -8z m-10 -31 c-3 -3 -12 -4
-19 -1 -8 3 -5 6 6 6 11 1 17 -2 13 -5z"/>
<path d="M46 2489 c4 -6 0 -15 -7 -20 -12 -7 -11 -10 1 -21 8 -7 11 -9 7 -4
-4 5 0 17 8 26 14 16 14 18 0 24 -10 4 -14 2 -9 -5z"/>
</g>
</svg>
